<?xml version="1.0" encoding="UTF-8"?>
<!DOCTYPE svg PUBLIC "-//W3C//DTD SVG 1.1//EN" "http://www.w3.org/Graphics/SVG/1.1/DTD/svg11.dtd">
<!-- Creator: CorelDRAW 2018 (64-Bit) -->
<svg xmlns="http://www.w3.org/2000/svg" xml:space="preserve" width="100px" height="100px" version="1.1" style="shape-rendering:geometricPrecision; text-rendering:geometricPrecision; image-rendering:optimizeQuality; fill-rule:evenodd; clip-rule:evenodd"
viewBox="0 0 100 100"
 xmlns:xlink="http://www.w3.org/1999/xlink">
 <defs>
  <style type="text/css">
   <![CDATA[
    .fil0 {fill:none}
    .fil1 {fill:#FEFEFE}
   ]]>
  </style>
 </defs>
 <g id="Слой_x0020_1">
  <metadata id="CorelCorpID_0Corel-Layer"/>
  <polygon class="fil0" points="12.5,12.5 87.5,12.5 87.5,87.5 12.5,87.5 "/>
  <path class="fil1" d="M50 0c-27.6,0 -50,22.4 -50,50 0,27.6 22.4,50 50,50 27.6,0 50,-22.4 50,-50 0,-27.6 -22.4,-50 -50,-50zm-24.65 81.4c2.15,-4.5 15.25,-8.9 24.65,-8.9 9.4,0 22.55,4.4 24.65,8.9 -6.8,5.4 -15.35,8.6 -24.65,8.6 -9.3,0 -17.85,-3.2 -24.65,-8.6zm56.45 -7.25c-7.15,-8.7 -24.5,-11.65 -31.8,-11.65 -7.3,0 -24.65,2.95 -31.8,11.65 -5.1,-6.7 -8.2,-15.05 -8.2,-24.15 0,-22.05 17.95,-40 40,-40 22.05,0 40,17.95 40,40 0,9.1 -3.1,17.45 -8.2,24.15l0 0zm-31.8 -54.15c-9.7,0 -17.5,7.8 -17.5,17.5 0,9.7 7.8,17.5 17.5,17.5 9.7,0 17.5,-7.8 17.5,-17.5 0,-9.7 -7.8,-17.5 -17.5,-17.5zm0 25c-4.15,0 -7.5,-3.35 -7.5,-7.5 0,-4.15 3.35,-7.5 7.5,-7.5 4.15,0 7.5,3.35 7.5,7.5 0,4.15 -3.35,7.5 -7.5,7.5z"/>
 </g>
</svg>
