<?xml version="1.0" encoding="UTF-8"?>
<!DOCTYPE svg PUBLIC "-//W3C//DTD SVG 1.1//EN" "http://www.w3.org/Graphics/SVG/1.1/DTD/svg11.dtd">
<!-- Creator: CorelDRAW 2018 (64-Bit) -->
<svg xmlns="http://www.w3.org/2000/svg" xml:space="preserve" width="100px" height="100px" version="1.1" style="shape-rendering:geometricPrecision; text-rendering:geometricPrecision; image-rendering:optimizeQuality; fill-rule:evenodd; clip-rule:evenodd"
viewBox="0 0 100 100"
 xmlns:xlink="http://www.w3.org/1999/xlink">
 <defs>
  <style type="text/css">
   <![CDATA[
    .fil0 {fill:#FEFEFE}
   ]]>
  </style>
 </defs>
 <g id="Слой_x0020_1">
  <metadata id="CorelCorpID_0Corel-Layer"/>
  <path class="fil0" d="M50 0c27.61,0 50,22.39 50,50 0,27.61 -22.39,50 -50,50 -27.61,0 -50,-22.39 -50,-50 0,-27.61 22.39,-50 50,-50zm-2.98 51.02c1,0.99 1.45,1.57 3.47,1.61 1.79,0.03 2.94,-0.54 3.62,-1.61 2.48,0.05 6.56,1.42 8.64,3.09 2.15,1.73 2.84,5.17 3,8.91 0.1,2.4 0.46,3.57 -0.96,4.87 -5.06,4.66 -18.6,4.49 -24.49,2.23 -1.6,-0.61 -2.74,-1.22 -3.8,-2.15 -1.46,-1.28 -1.15,-2.28 -1.04,-4.77 0.16,-3.77 0.69,-6.92 2.89,-8.98 1.56,-1.45 5.74,-3.06 8.67,-3.2zm-5.16 -0.09c-1.89,0.55 -3.88,1.76 -4.87,2.92 -2.54,2.95 -1.67,4.75 -2.72,4.99 -3.15,0.71 -14.64,-0.12 -14.65,-4.24 -0.01,-3.18 0.12,-7.02 2.68,-8.86 0.76,-0.54 4.46,-2.11 5.74,-1.92 0.3,0.05 2.71,2.71 5.47,-0.02 1.8,0.09 4.64,1.05 5.8,1.89 1.42,1.01 2.47,2.76 2.55,5.24zm24.63 -7.13c0.71,0.72 1.17,1.16 2.61,1.18 1.72,0.03 1.91,-0.51 2.73,-1.19 2.67,0.22 5.39,1.28 6.71,2.72 1.64,1.79 1.77,4.59 1.83,7.58 0.03,1.8 -0.63,2.22 -1.78,2.92 -0.94,0.56 -2.17,1.05 -3.35,1.35 -2.24,0.57 -6.31,0.9 -8.7,0.52 -1.08,-5.03 -3.56,-6.91 -8.33,-8.29 -0.1,-2.19 1.37,-4.15 2.55,-4.96 1.15,-0.79 4,-1.76 5.73,-1.83zm-17.38 -13.58c6.53,-0.8 9.81,2.55 10.09,8.62 0.26,5.79 -2.3,10.63 -7.18,11.58 -5.6,1.1 -9.39,-3.96 -9.95,-8.72 -0.66,-5.5 0.85,-10.72 7.04,-11.48zm18.6 -1.74c4.86,-0.78 7.37,1.58 7.76,5.95 0.37,4.23 -1.51,7.98 -4.93,8.84 -4.17,1.05 -7.06,-2.51 -7.64,-5.89 -0.36,-2.09 -0.06,-4.4 0.67,-6.05 0.69,-1.53 2.05,-2.51 4.14,-2.85zm-38.52 0.04c2.07,-0.42 4.39,-0.03 5.74,0.96 1.32,0.98 2.01,2.51 2.22,4.73 0.41,4.38 -1.39,8.08 -4.72,9.01 -6.43,1.81 -9.55,-6.64 -7.23,-11.71 0.75,-1.66 1.87,-2.56 3.99,-2.99z"/>
 </g>
</svg>
