<?xml version="1.0" encoding="UTF-8"?>
<!DOCTYPE svg PUBLIC "-//W3C//DTD SVG 1.1//EN" "http://www.w3.org/Graphics/SVG/1.1/DTD/svg11.dtd">
<!-- Creator: CorelDRAW 2018 (64-Bit) -->
<svg xmlns="http://www.w3.org/2000/svg" xml:space="preserve" width="100px" height="100px" version="1.1" style="shape-rendering:geometricPrecision; text-rendering:geometricPrecision; image-rendering:optimizeQuality; fill-rule:evenodd; clip-rule:evenodd"
viewBox="0 0 100 100"
 xmlns:xlink="http://www.w3.org/1999/xlink">
 <defs>
  <style type="text/css">
   <![CDATA[
    .fil0 {fill:#FEFEFE}
   ]]>
  </style>
 </defs>
 <g id="Слой_x0020_1">
  <metadata id="CorelCorpID_0Corel-Layer"/>
  <path class="fil0" d="M80.73 76.93c-0.12,-2.23 0.75,-8.96 2.79,-8.85 1.93,0.1 2.76,6.66 2.65,8.85l-5.44 0zm-54.31 -25.29l23.54 9.44c0.83,0.31 2.23,-0.53 3.08,-0.87 3.49,-1.41 18.47,-7.6 20.5,-8.22l0 12.24c0,1.59 -0.05,1.2 -0.94,1.99 -5.86,5.16 -14.24,10.67 -22.38,10.69 -9.02,0.03 -19.19,-7.67 -23.79,-11.52 -0.11,-3.68 -0.02,-8.73 -0.02,-12.56l0.01 -1.19zm-17.85 -11.11c0.54,-0.3 40.86,-11.19 41.4,-11.2 0.61,0 41.18,11.06 41.41,11.21 -1.21,0.52 -6.28,2.45 -6.9,2.84l-0.01 23.83 -2.02 -0.1 -0.02 -22.92 -27.71 11.12c-5.81,2.35 -3.59,2.38 -9.32,0.06 -9.12,-3.69 -18.54,-7.56 -27.65,-11.12 -1.55,-0.61 -3.03,-1.21 -4.6,-1.85 -1.51,-0.62 -3.16,-1.2 -4.58,-1.87zm91.43 12.05c0.6,-7.31 -1.17,-15.3 -3.55,-21.28 -2.52,-6.32 -5.99,-11.09 -9.69,-15.27l-3.21 -3.12c-0.58,-0.48 -1.07,-0.95 -1.7,-1.47 -8.04,-6.58 -18.03,-10.77 -29.11,-11.37 -7.58,-0.41 -15.34,1.02 -21.46,3.54 -6.67,2.75 -13.65,7.32 -18.43,12.86l-2.83 3.38c-1.76,2.27 -3.35,4.88 -4.82,7.72 -2.86,5.52 -4.87,12.52 -5.24,19.69 -1.5,28.57 20.65,51.31 47.34,52.67 18.71,0.96 35.52,-8.18 45.28,-23.61 0.78,-1.24 1.52,-2.56 2.24,-3.97 3.1,-6.05 4.53,-11.96 5.18,-19.77z"/>
 </g>
</svg>
