<?xml version="1.0" encoding="UTF-8"?>
<!DOCTYPE svg PUBLIC "-//W3C//DTD SVG 1.1//EN" "http://www.w3.org/Graphics/SVG/1.1/DTD/svg11.dtd">
<!-- Creator: CorelDRAW 2018 (64-Bit) -->
<svg xmlns="http://www.w3.org/2000/svg" xml:space="preserve" width="100px" height="100px" version="1.1" style="shape-rendering:geometricPrecision; text-rendering:geometricPrecision; image-rendering:optimizeQuality; fill-rule:evenodd; clip-rule:evenodd"
viewBox="0 0 100 100"
 xmlns:xlink="http://www.w3.org/1999/xlink">
 <defs>
  <style type="text/css">
   <![CDATA[
    .fil0 {fill:#FEFEFE}
   ]]>
  </style>
 </defs>
 <g id="Слой_x0020_1">
  <metadata id="CorelCorpID_0Corel-Layer"/>
  <g id="_2342797403776">
   <polygon class="fil0" points="12.5,12.5 87.5,12.5 87.5,87.5 12.5,87.5 "/>
   <path class="fil0" d="M10.54 53.71c-1.24,-12.41 3.81,-23.26 9.63,-29.78 6.88,-7.7 15.41,-12.25 26.22,-13.39 12.03,-1.28 23.23,3.8 29.64,9.61 1.92,1.73 3.09,2.78 4.82,4.98 8.63,10.97 11.3,25.2 6.36,38.51 -2.03,5.48 -3.97,8.2 -7.35,12.4 -1.36,1.69 -3.29,3.41 -5,4.81 -10.53,8.58 -25.42,11.21 -38.43,6.4 -2.43,-0.9 -4.67,-1.97 -6.73,-3.21 -3.07,-1.83 -5.8,-4.07 -8.23,-6.55 -6.11,-6.25 -10.03,-14.69 -10.93,-23.78zm36.79 -53.64c-10.98,0.66 -21.2,4.71 -29.15,11.37l-3.34 3.01c-2.56,2.56 -5.03,5.52 -6.99,8.61 -1.58,2.49 -3.09,5.32 -4.26,8.31 -5.87,14.97 -4.51,31.59 3.94,45.02 1.77,2.82 3.17,4.66 5.33,7.09 1.02,1.14 1.97,2.23 3.15,3.21l3.37 2.84c9.36,7.35 21.09,10.99 33.47,10.41 9.7,-0.45 20.27,-4.43 27.33,-10.05 5.39,-4.29 8.29,-7.38 11.99,-13 1.65,-2.5 3.03,-5.28 4.27,-8.28 2.62,-6.27 3.81,-13.67 3.51,-21.25 -0.41,-10.22 -4.33,-19.89 -10,-27.46 -1.33,-1.78 -5.32,-6.2 -6.75,-7.33l-2.57 -2.12c-1.12,-0.89 -2.37,-1.77 -3.64,-2.58 -2.63,-1.66 -5.1,-2.88 -8.29,-4.28 -5.81,-2.55 -14.23,-3.94 -21.37,-3.52z"/>
   <path class="fil0" d="M48.19 23.45c0.91,-0.26 1.83,0.08 2.35,0.52 0.54,0.46 0.77,1.46 1.25,1.93 1.37,1.32 3.96,-0.22 4.97,1.38 0.4,0.64 0.47,1.93 0.4,2.82 -0.24,2.89 -2.96,1.89 -7.5,1.97 -2.12,0.03 -4.23,-0.05 -6.35,0.02 -3.02,0.1 -2.76,-0.88 -2.72,-3.66 0.04,-2.78 2.3,-1.52 4.22,-2.08 2.25,-0.65 1.56,-2.36 3.38,-2.9zm-13.69 19.49c0,-2.35 0,-4.71 0.03,-7.05 0.04,-2.91 0.7,-3.87 2.99,-2.76 1.53,0.75 3.51,1.94 4.83,2.03 2.55,0.17 11.05,0.34 13.33,-0.04 3.06,-0.51 7.46,-5.87 7.5,0.77 0.01,2.21 0.05,4.45 0.03,6.65 0.88,-0.04 2.9,-0.49 3.59,-0.83 1.89,-0.94 1.43,-1.3 2.88,-1.1l-0.02 -7.76c0.12,-12.89 -8.73,-5.41 -16.3,-10.45 -1.07,-0.72 -1.45,-1.36 -2.26,-2.03 -0.76,-0.63 -1.87,-1.33 -3.21,-0.75 -4.25,1.86 -0.56,4.07 -12.3,4.81 -7.04,0.45 -7.48,2.81 -7.48,9.67l0.01 31.35c0.03,3.88 -0.59,9 1.91,11.08 2.1,1.76 5.78,1.41 9,1.41l15.05 0c3.32,-0.02 10.3,0.38 12.65,-0.81 1.17,-0.6 2.54,-2.02 2.63,-3.76 -2.48,-0.08 -4.51,-1.9 -6.17,-2.86 -0.02,0.03 -0.05,0.07 -0.06,0.09 -0.01,0.02 -0.05,0.06 -0.06,0.08 -0.8,1.18 -1.03,1.2 -3.05,1.19l-18.36 -0.02c-5.81,-0.05 -7.24,0.92 -7.2,-3.64l0.04 -25.27z"/>
   <path class="fil0" d="M60.5 54.95c0,-2.05 0.31,-4.07 0.67,-6.02 0.11,-0.61 0.12,-0.79 0.71,-0.94 2.02,-0.48 4.56,-0.36 6.56,-1.61 1.04,-0.65 1.17,-0.17 2.17,0.33 2.86,1.43 5.7,0.58 6.27,1.87 0.79,1.79 -0.03,2.34 -1.18,3.28 -1.19,0.98 -2.32,1.93 -3.55,2.93 -1.83,1.5 -2.58,2.8 -3.72,1.97 -0.77,-0.56 -3.14,-2.39 -3.91,-2.64l4.07 10.07c0.75,-0.5 8.05,-10.91 8.82,-11.59 0.08,0.1 0.14,0.01 0.24,0.65 0.55,3.58 -0.56,8.15 -2.25,10.73 -1.27,1.93 -4.54,4.57 -6.27,4.58 -0.98,0.01 -3.05,-1.31 -3.68,-1.78 -3.67,-2.72 -4.95,-6.99 -4.95,-11.83zm19.19 -4.56c-0.12,-1.55 1.13,-2.07 1.57,-3.12 -0.6,0.3 -1.16,1.01 -1.77,1.29 -0.5,-0.8 -0.24,-2.43 -0.98,-3 -0.24,-0.18 -4.9,-0.9 -6.56,-1.43 -3.81,-1.22 -1.04,-1.84 -4.95,-0.26 -2.03,0.81 -5.86,1.09 -7.56,1.67 -0.64,1.75 -1.14,6.45 -1.14,8.58 0,6.37 1.55,11.46 6.29,15.04 0.68,0.51 3.46,2.23 4.54,2.28 1.14,0.04 3.93,-1.79 4.65,-2.31 1.24,-0.9 2.34,-2.12 3.27,-3.5 1.81,-2.7 2.93,-6.53 2.93,-10.54 0.11,-0.67 -0.22,-3.78 -0.29,-4.7z"/>
   <path class="fil0" d="M38.33 68.08l21.07 -0.06c0.03,-0.44 0.08,-1.16 0.02,-1.59 -0.06,-0.48 -0.31,-0.71 -0.5,-1.13l-20.61 0.01 0.02 2.77z"/>
   <path class="fil0" d="M38.28 41.34c0.6,0.14 19.62,0.18 21.15,0.05l0.01 -2.58 -21.27 -0.05 0.11 2.58z"/>
   <polygon class="fil0" points="38.3,54.73 56.37,54.72 56.4,52.05 38.25,52.11 "/>
   <path class="fil0" d="M40.28 45.34c-1.17,0 -1.91,-0.2 -1.99,0.37 -0.05,0.33 -0.02,1.86 0.01,2.25 0.76,0.15 15.86,0.14 16.53,-0.01l-0.01 -2.57 -14.54 -0.04z"/>
   <polygon class="fil0" points="38.41,61.4 51.38,61.34 51.37,58.61 38.34,58.61 "/>
   <path class="fil0" d="M50.82 28.85c0.87,-2.53 -3.05,-3.57 -3.75,-1.21 -0.74,2.53 2.89,3.69 3.75,1.21z"/>
  </g>
 </g>
</svg>
