<?xml version="1.0" encoding="UTF-8"?>
<!DOCTYPE svg PUBLIC "-//W3C//DTD SVG 1.1//EN" "http://www.w3.org/Graphics/SVG/1.1/DTD/svg11.dtd">
<!-- Creator: CorelDRAW 2018 (64-Bit) -->
<svg xmlns="http://www.w3.org/2000/svg" xml:space="preserve" width="100px" height="100px" version="1.1" style="shape-rendering:geometricPrecision; text-rendering:geometricPrecision; image-rendering:optimizeQuality; fill-rule:evenodd; clip-rule:evenodd"
viewBox="0 0 100 100"
 xmlns:xlink="http://www.w3.org/1999/xlink">
 <defs>
  <style type="text/css">
   <![CDATA[
    .fil0 {fill:#FEFEFE}
   ]]>
  </style>
 </defs>
 <g id="Слой_x0020_1">
  <metadata id="CorelCorpID_0Corel-Layer"/>
  <g id="_2308316147184">
   <path class="fil0" d="M47.96 16.03c9.8,-0.68 17.79,2.94 24.63,8.82 2.47,2.12 5.36,5.92 7.19,9.63 10.75,21.81 -4.12,47.63 -28.08,48.97 -19.11,1.07 -34.26,-13.61 -35.3,-31.77 -0.56,-9.77 3.04,-18.05 8.85,-24.8 5.27,-6.12 14.04,-10.25 22.71,-10.85zm-19.82 -2.79c1.67,5.27 0.8,3.94 -3.53,7.82 -1.84,1.64 -2.76,3.44 -5.35,2.14 -10.3,-5.17 -8.01,-6.15 -11.79,1.15 -6.57,12.69 -6.85,11.33 -3.29,13.21 10.15,5.36 7.5,2.45 7.2,12.58 -0.09,2.91 -2.19,2.96 -4.61,3.76 -7.49,2.48 -7.35,1.49 -6.16,5.31l3.02 9.64c0.35,1.11 0.65,2.12 1,3.21 0.33,1.03 0.47,2.55 1.67,2.56 0.65,0.01 5.57,-1.69 6.54,-2 2.99,-0.96 4.11,-1.81 5.93,0.76 1.31,1.85 2.59,3.13 3.93,4.64 1.69,1.92 -0.14,4.19 -1.03,5.9 -3.46,6.67 -3.82,6.16 -0.71,7.78l8.27 4.29c6.68,3.59 6.21,3.94 7.8,0.85 0.95,-1.86 3.37,-7.29 4.71,-7.92 0.95,-0.44 5.89,0.33 7.49,0.35 3.23,0.05 3.19,1.72 4.2,4.26 2.88,7.2 2.03,7.07 5.65,5.8l9.24 -3.33c1.07,-0.39 2.02,-0.74 3.08,-1.11 3.11,-1.09 2.51,-0.87 1.16,-5.27 -0.32,-1.05 -0.67,-2.13 -1,-3.21 -1.22,-3.95 -0.1,-3.45 4.38,-7.28 0.84,-0.72 1.16,-1.5 2.29,-1.93 1.68,-0.65 4.62,1.38 6.03,2.12 0.93,0.5 1.85,0.97 2.86,1.48 0.83,0.41 2.05,1.36 2.88,0.38l5.74 -11.1c3.41,-6.62 3.93,-4.94 -3.34,-8.74 -1.69,-0.89 -4.38,-1.7 -4.37,-3.99 0,-0.98 0.36,-2.61 0.46,-3.77 0.09,-1.06 0.04,-3.11 0.23,-3.96 0.48,-2.08 3.28,-2.46 5.28,-3.09 7.71,-2.43 6.66,-0.9 4.15,-9.06 -0.65,-2.12 -1.33,-4.26 -2.01,-6.42 -1.16,-3.74 -1.12,-5.5 -3.17,-4.86 -2.15,0.68 -4.26,1.38 -6.45,2.08 -3.47,1.1 -3.66,1.16 -5.58,-1.39 -3.04,-4.05 -5.49,-4.74 -3.8,-7.83 0.52,-0.95 0.92,-1.81 1.43,-2.77 3.53,-6.64 3.4,-5.78 0.02,-7.54 -2.24,-1.17 -13.21,-7.07 -13.9,-7.01 -1.04,0.09 -2.55,3.74 -3.33,5.23 -3.23,6.21 -1.46,5.06 -11.35,4.42 -2.53,-0.16 -2.77,-2.66 -3.46,-4.92 -2.49,-8.06 -0.89,-7.21 -8.72,-4.74l-9.5 3.05c-1.09,0.35 -2.48,0.49 -2.23,1.94l2.04 6.53z"/>
   <path class="fil0" d="M36.55 44.34c-0.16,1.33 0.71,5.72 1.14,7.02 0.75,0.4 1.26,0.1 1.52,1.12 0.49,2.02 1.05,4.09 2.52,5.59 4.18,4.3 12.22,3.78 15.53,-0.09 1.19,-1.39 2.31,-3.4 2.81,-5.28 0.34,-1.28 0.43,-0.9 1.57,-1.26 0.28,-0.9 1.28,-5.67 1.16,-6.63 -1.5,-0.54 -2.21,-0.26 -3.71,-3.27 -0.87,-1.73 -1.19,-3.38 -1.87,-5.3 -2.6,-0.13 -3.27,0.46 -7.42,-0.17 -3.53,-0.54 -3.74,-1.08 -6.12,-1.78 -0.44,0.44 -1.1,1.82 -1.7,2.53 -2.76,3.27 -1.12,0.26 -3.38,5.18 -0.4,0.88 -0.64,1.85 -1.18,2.1l-0.75 0.2c-0.03,0 -0.08,0.01 -0.12,0.04z"/>
   <path class="fil0" d="M26.94 72.08c1.63,2.4 6.75,5.57 9.62,6.91 8.6,4.05 18.2,3.76 26.74,-0.15 3.5,-1.6 7.64,-4.61 9.49,-6.92 -1.27,-1.68 -2.41,-1.92 -5.07,-2.46 -2.17,-0.44 -4.34,-0.77 -6.52,-1.21 -4.18,-0.85 -2.38,-1.36 -5.61,0.26 -5.49,2.74 -6.02,2.85 -11.54,0.21 -0.61,-0.3 -2.11,-1.1 -2.63,-1.25 -0.35,-0.1 -8.37,1.92 -9.17,2.11 -2.37,0.55 -4.13,0.82 -5.31,2.5z"/>
   <path class="fil0" d="M37.65 40.18c0.41,-0.73 0.62,-1.52 1.01,-2.18 0.41,-0.69 1.09,-1.05 1.63,-1.64 0.51,-0.57 0.93,-1.15 1.38,-1.9 1.66,-2.72 0.44,-2.45 4.03,-1.12 3.07,1.13 6.35,1.56 9.7,1.36 3.66,-0.22 3.03,0.19 4,3.23 0.55,1.73 1.4,4.14 2.69,4.88 0.3,-5.3 1.31,-8.25 -1.57,-12.28 -3.41,-4.77 -12.93,-6 -16.38,-4.38 -2.42,1.13 -2.15,3.13 -3.71,3.6 -1.8,0.55 -3.27,1.74 -3.49,3.78 -0.1,0.92 0.38,6.16 0.71,6.65z"/>
   <path class="fil0" d="M42.58 66.12c0.65,0.56 5.35,2.78 6.8,2.85 2.72,0.12 4.84,-1.93 7.02,-2.63 -0.71,-2.32 -0.91,0.04 -0.99,-4.94 -2.08,0.46 -4.22,2.19 -9.1,0.95 -1.08,-0.27 -1.85,-0.72 -2.82,-0.99 -0.02,3.29 0.22,2.27 -0.91,4.76z"/>
  </g>
 </g>
</svg>
